<svg version="1.1" id="Layer_1" xmlns="http://www.w3.org/2000/svg" xmlns:xlink="http://www.w3.org/1999/xlink" x="0px" y="0px"
	 width="100%" viewBox="0 0 720 656" enable-background="new 0 0 720 656" xml:space="preserve">
<path fill="#000000" opacity="1.000000" stroke="none" 
	d="
M393.551697,520.432983 
	C404.482361,528.399048 416.036255,534.627075 428.206482,540.556274 
	C426.399658,544.370056 423.176483,546.057495 420.586823,548.137878 
	C401.860535,563.181335 380.766205,573.521118 357.350555,578.918884 
	C350.412354,580.518311 343.377991,578.932678 336.489807,577.997559 
	C253.447952,566.723206 186.891724,525.121094 130.234131,465.465698 
	C125.421669,460.398621 121.083214,454.883270 116.472862,449.621460 
	C114.382271,447.235474 113.546974,444.566620 113.618225,441.379425 
	C114.046036,422.244385 115.662720,403.200531 117.440048,384.151550 
	C119.632759,360.650604 122.562836,337.254883 126.684685,314.024536 
	C136.279037,259.951721 149.308716,206.926056 175.352615,157.974701 
	C182.576447,144.397003 191.090591,131.704224 201.090622,119.986862 
	C203.963196,116.620964 207.286301,114.680977 211.579712,113.909317 
	C239.207489,108.943756 266.821594,103.902199 294.439301,98.880722 
	C299.081024,98.036751 302.806244,99.190392 305.913452,103.047691 
	C320.649780,121.341522 330.619110,142.024567 333.847961,165.169632 
	C336.346069,183.076660 329.186646,198.250076 314.439667,209.105835 
	C308.326996,213.605576 301.523071,217.166336 295.335999,220.968262 
	C293.250000,219.692917 292.945862,218.203552 292.489685,216.785843 
	C289.685791,208.072006 286.923676,199.343994 284.021027,190.663040 
	C283.093475,187.888977 283.480072,185.970261 286.163513,184.404114 
	C289.756805,182.306946 293.258972,180.025040 296.637848,177.596466 
	C300.763947,174.630814 301.702209,170.794540 299.470856,167.247025 
	C297.095276,163.470230 292.943481,162.560532 288.667542,165.227676 
	C282.449341,169.106277 276.316162,173.128372 270.254242,177.247543 
	C266.858856,179.554779 265.805389,182.731125 267.154785,186.826416 
	C270.903412,198.202927 274.509583,209.626877 278.086243,221.058929 
	C278.599670,222.700012 279.901031,224.367188 278.414764,226.621246 
	C271.304688,226.062317 264.276794,224.091568 257.164734,222.684341 
	C249.339142,221.135941 249.540527,221.043045 249.274704,228.788315 
	C248.139374,261.867157 253.788849,293.714600 266.472961,324.279755 
	C267.867523,327.640167 267.165802,329.017120 263.689056,329.913605 
	C251.903381,332.952667 240.475632,337.061951 229.324478,341.950378 
	C225.670593,343.552185 223.875519,346.159637 224.223801,350.180450 
	C224.531601,353.733673 226.944550,355.321594 229.956558,356.325256 
	C232.246185,357.088226 234.205109,355.894043 236.166672,355.069092 
	C251.863876,348.467529 267.977448,343.276550 284.795013,340.373291 
	C323.710205,333.655304 360.354187,339.768005 394.360809,360.063080 
	C413.188721,371.299591 429.068390,385.876892 441.868805,403.741791 
	C443.223480,405.632416 444.533875,407.716522 446.886566,408.448029 
	C449.944214,409.398743 452.878662,409.112518 455.072754,406.428436 
	C457.361084,403.629089 457.505798,400.441040 455.489868,397.625946 
	C452.003052,392.756897 448.350159,387.975342 444.415192,383.463898 
	C424.057465,360.123718 399.145630,343.363342 370.183319,332.534363 
	C368.938141,332.068817 367.696777,331.590515 366.472443,331.073578 
	C366.187836,330.953369 365.980316,330.650421 365.567017,330.278107 
	C365.491180,327.288483 367.725891,325.300262 369.280212,323.068848 
	C387.047546,297.562286 410.654205,279.044983 438.362274,265.425873 
	C456.895935,256.316223 476.313324,249.947067 496.860168,247.826141 
	C525.165527,244.904327 550.621338,253.225708 573.377869,269.685120 
	C601.985962,290.376862 617.864502,319.272491 624.167969,353.421692 
	C630.461304,387.515839 624.474792,420.008057 608.450256,450.628906 
	C595.506409,475.362762 579.580688,497.899689 557.285278,515.150208 
	C524.705139,540.358154 488.580505,545.343323 449.723602,532.727417 
	C429.208221,526.066528 410.701569,515.702209 393.995758,502.087280 
	C392.058014,500.508087 390.177124,498.851410 388.166565,497.370941 
	C384.202057,494.451752 380.373688,494.771332 377.522400,498.136414 
	C374.709320,501.456421 374.996094,505.402252 378.805481,508.685516 
	C383.471619,512.707214 388.430817,516.388916 393.551697,520.432983 
M161.731537,428.721802 
	C159.803818,426.591248 157.743118,424.572144 154.673279,424.451416 
	C151.538712,424.328186 149.095352,425.881775 147.889709,428.674774 
	C146.444626,432.022461 147.288803,435.109253 149.800949,437.847534 
	C163.104477,452.348694 177.362305,465.831299 192.672668,478.194580 
	C200.834061,484.785004 209.222244,491.074066 217.981140,496.855499 
	C222.563324,499.880066 226.886978,499.434906 229.391891,495.730011 
	C231.924896,491.983551 230.795975,488.002258 226.237289,484.696625 
	C224.890427,483.720093 223.498077,482.806458 222.134216,481.853088 
	C200.217575,466.532623 180.220398,449.026001 161.731537,428.721802 
M512.689697,295.004547 
	C537.893005,299.910767 556.970886,313.032501 568.580200,336.369812 
	C570.604614,340.439301 574.696594,341.648102 578.250061,339.924500 
	C582.432983,337.895569 583.694580,334.117920 581.583130,329.437714 
	C578.696411,323.039154 574.983276,317.132446 570.443115,311.777740 
	C556.380859,295.192902 538.863953,284.574615 517.219727,281.166748 
	C513.234131,280.539276 509.879852,281.445648 508.233032,285.567352 
	C506.552979,289.772186 508.521790,292.563965 512.689697,295.004547 
z"/>
</svg>